# xmcd
#
# Track frame offsets: 
#        150
#        33000
#        84450
#        112950
#        157275
#        182100
#        208350
#
# Disc length: 3066 seconds
#
# Revision: 2
# Processed by: cddbd v1.5.2PL0 Copyright (c) Steve Scherf et al.
# Submitted via: ExactAudioCopy v1.0b3
#
DISCID=5a0bf807
DTITLE=David Murray - Jazzosaurus Rex
DYEAR=1993
DGENRE=Jazz
TTITLE0=Eternal Triangle
TTITLE1=Chelsea Bridge
TTITLE2=Jazzosaurus Rex
TTITLE3=Mingus in the Poconos
TTITLE4=Dinosaur Park Blues
TTITLE5=Ballad for David
TTITLE6=Now He's Miles Away
EXTD=YEAR: 1993
EXTT0=
EXTT1=
EXTT2=
EXTT3=
EXTT4=
EXTT5=
EXTT6=
PLAYORDER=
